<svg fill="none" height="103" viewBox="0 0 139 103" width="139" xmlns="http://www.w3.org/2000/svg"><g fill="#4a4a4a"><path d="m39.75 78.4c-.24.03-.53.2-.7701.24-.24.03-.4799.06-.7299.09s-.47.13-.72.16c-.24.03-.47.13-.72.16-.24.03-.52-.21-.76-.18s-.45.3-.69.33-.5201-.2-.7601-.17-.4399.35-.6799.39c-.24.03-.51-.17-.75-.13-.24.03-.4801.08-.7201.12-.24.03-.4899.04-.7299.07s-.47.12-.72.15c-.24.03-.48.11-.72.14s-.4701.16-.7101.2c-.24.03-.5199-.2-.7599-.17s-.45.32-.69.35-.48.04-.73.07c-.24.03-.5-.1-.74-.07s-.49.01-.73.04-.47.13-.71.16-.48.09-.72.11c-.24.03-.47.2-.71.23s-.5001-.05-.7401-.03c-.23.03-.4799-.08-.7099-.05s-.45.19-.68.21c-.23.03-.45.22-.68.24s-.47.03-.7.06c-.23.02-.4601.05-.7001.07-.23.02-.4999-.29-.7299-.27s-.46.07-.69.09-.45.24-.68.26-.46.13-.69.15-.48-.17-.72-.15c-.23.02-.47-.05-.7-.03s-.46.1-.69.12-.47-.02-.7-.01-.45.21-.69.23c-.23.01-.47-.01-.7 0s-.46.11-.69.12-.48-.22-.71-.21-.4601.1-.7001.11c-.23.01-.4399.02-.66993-.01-.23-.03-.43003-.11-.65003-.17s-.51.05-.72-.05c-.2-.1-.27999-.4-.45999-.55-.17-.14-.33999-.27-.48999-.45-.14-.18-.28002-.34-.39002-.55-.1-.22-.39998-.35-.50998-.57s-.04001-.52-.14001-.74-.11-.48-.22-.7c-.1-.22-.15999-.46-.26999-.68-.1-.22-.52001-.29-.63001-.51s-.13999-.47-.23999-.69.02001-.54-.08999-.76c-.1-.22-.48001-.32-.57001-.54-.1-.22-.09-.49-.19-.71-.1-.23-.18999-.49-.17999-.72.01-.24.01999-.57.14999-.77.13-.19.44-.29.66-.41.19-.11.44999-.08.70999-.11.24-.03.45001-.31.69001-.34s.51.1.75.07.46999-.18.70999-.21.52001.27.76001.24.47-.15.72-.17c.24-.02.48998-.01.72998-.02.23996-.02.47996-.16.71996-.17.24-.02.48-.18.72-.19s.4901.26.7301.25.4699-.08.7099-.09.4801-.05.7101-.06c.24-.01.48.05.72.04s.47-.2.71-.21.48.19.72.18.47-.1.71-.11.48.11.72.1.46-.34.7-.34c.24-.01.48.08.72.07s.48.07.72.06.48.08.72.07.47-.26.71-.27.48.2.72.19.47-.26.71-.27.49.22.72.21c.24-.01.4699-.19.7099-.2s.4801-.05.7101-.05c.24-.01.47-.09.71-.1s.48.11.72.11c.24-.01.47-.15.71-.16s.48.16.72.15.4699-.13.7099-.14.4901.28.7301.27.4699-.1.7099-.11.4701-.07.7101-.08.47-.11.71-.12.48.2.72.19.47-.08.71-.09.48.04.72.03.4699-.15.7099-.16.4701-.19.7101-.19c.24-.01.48.15.72.15s.47-.1.71-.11.48.05.72.04c.23-.01.35-.26.53-.29.09-.14.4799-.08.4799-.16-.02-.25-.1799-.48-.1899-.73s.11-.49.12-.73c.01-.25-.16-.5-.14-.74.02-.25.1699-.47.2099-.71.04-.25.04-.49.1-.73.0601-.24.1701-.46.2401-.69.07-.24-.0201-.53.0699-.76s.4301-.35.5401-.57.14-.47.26-.69c.12-.21.2499-.41.3899-.62.14-.2.3101-.37.4601-.57.15-.19.1899-.48.3499-.66.16-.19.2701-.42.44-.6.17-.18.32-.38.5-.55s.5101-.17.7001-.33c.18-.16.24-.48.43-.63s.57-.07.76-.21c.2-.15.18-.59.38-.73s.62.05.83-.09c.2-.13.3699-.32.5799-.45.2-.13.3001-.42.5101-.54s.4199-.24.6199-.35c.21-.12.49-.11.69-.22.21-.11.41-.24.62-.35s.42-.22.63-.32.3601-.35.5801-.45.5-.06.71-.15c.22-.1.38-.32.6-.41s.47-.11.69-.2.4799-.08.6999-.16.4701-.08.7001-.16c.22-.08.4399-.16.6699-.24.23-.07.3801-.35.6101-.43.23-.07.5 0 .73-.06.23-.07.48-.04.71-.1s.4399-.18.6699-.24.4701-.08.7001-.14.43-.23.66-.28.48-.01.72-.06c.23-.05.45-.17.68-.22s.44-.23.67-.28c.23-.04.51.18.75.14.23-.04.44-.23.68-.26.23-.04.45-.23.68-.27.24-.03.4999.15.7399.12s.4701-.04.7101-.07.4499-.36.6999-.39c.24-.03.5101.15.7601.12s.48-.1.73-.13c.24-.03.4899-.06.7299-.09s.4801-.15.7301-.17c.25-.03.48-.11.73-.14s.5199.21.7599.19c.25-.02.4701-.3.7101-.32.25-.02.52.26.7599.24.25-.02.4901-.08.7301-.1.25-.02.47-.3.72-.32s.49-.01.74-.03.51.21.75.19c.25-.01.49-.1.73-.11.25-.01.4799-.26.7299-.27s.5.17.75.16.4901.05.7401.04.49-.01.74-.01c.24 0 .49.1.73.1s.4899-.21.7299-.21.4901-.07.7401-.07c.24 0 .4799.24.7299.25.24.01.5001-.25.7401-.24s.48.3.72.32c.24.01.5-.17.74-.16s.49.01.73.02c.24.02.49.02.73.03.2399.02.4699.31.7099.33s.5101-.27.7601-.25c.24.02.48.15.72.18.24.02.5-.1.75-.07.24.02.47.19.72.22.24.03.4999-.07.7399-.04s.4601.28.7001.3c.24.03.47.14.72.17.23.03.4799-.05.7099-.02.2301.03.4701.04.7001.07s.48-.01.71.02.4699.01.7099.04c.23.03.4401.22.6801.25.23.03.4999-.15.7299-.12.2301.03.46.13.6901.17.23.03.46.11.69.14s.46.12.69.15c.23.04.47.03.7.06s.46.12.69.16.4699.07.7.11c.23.04.4799 0 .7099.04s.4501.17.6801.21.45.13.69.18c.23.04.4999-.14.7299-.09.2301.04.42.31.65.35s.49-.06.7201-.02c.23.04.48-.02.71.03.23.04.45.14.68.18s.42.3.65.34c.23.05.5-.1.73-.05s.48.03.71.07c.24.05.42.35.66.41s.47.11.71.16c.24.06.46.16.69.22s.45.17.69.23c.23.06.51-.03.74.04.23.06.51-.01.74.05.23.07.42.29.65.36s.47.13.7.2.45.2.68.27.45.19.68.26.51-.02.74.05.42.28.65.35.5.01.73.08.44.23.67.3.45.18.68.25.52.04.75.11c.17-.15.45-.26.62-.42s.21-.45.38-.62.34-.33.52-.48c.18-.16.43-.2.62-.33.2-.13.32-.4.54-.48s.49-.16.76-.14c.23.02.45.26.7.33.23.06.44.19.67.28.24.1.54.04.74.15.23.12.32.38.48.55.17.18.53.24.63.46s.08.51.12.76c.03.24-.02.49-.04.74-.03.24-.13.46-.21.69s-.02.42-.15.63c.2.13.17.44.37.56s.45.18.65.3.37.31.57.43.47.14.67.26.36.33.56.45.58-.04.78.08.36.33.56.45.4.26.6.38.44.19.64.32c.2.12.34.36.54.48s.47.14.67.27.25.49.45.62.46.16.66.29.44.2.64.33.45.18.65.31.24.49.43.63.53.07.72.21.41.25.6.39c.2.15.21.54.4.69.2.15.42.26.61.42s.44.24.63.4.42.27.6.44.42.29.59.46c.18.17.3.4.47.58s.25.44.41.62c.16.19.25.43.4.62.15.2.23.43.37.63s.44.3.57.5c.13.21.38.36.5.57.12.22.18.47.29.69.1.22.16.47.25.7s.11.48.19.72c.08.23.18.46.25.7.06.24-.09.52-.04.76s.31.44.35.69c.03.23-.09.48-.08.71s.3.47.29.7-.08.48-.1.71c-.02.24-.15.46-.19.69s-.2.44-.26.66c-.06.23-.04.48-.12.7s-.31.38-.39.59c-.08.22.05.51-.03.72-.08.22-.03.48-.11.7s-.43.33-.52.55c-.08.22-.23.41-.31.62s.09.53 0 .75c-.09.21-.24.4-.33.61s-.31.37-.4.58.05.53-.05.74-.47.28-.57.49-.04.5-.15.7-.39.31-.5.51c-.12.2-.14.45-.26.65-.13.21-.09.52-.23.72s-.43.29-.57.48-.16.5-.31.68c-.15.19-.37.33-.53.51s-.29.4-.46.57-.35.34-.52.51-.39.3-.56.46c-.18.16-.38.3-.57.45-.18.15-.31.38-.5.53s-.58.02-.78.17c-.19.14-.32.37-.52.51s-.44.2-.64.33-.31.41-.51.54c-.21.12-.37.33-.58.45s-.54.03-.75.14-.33.41-.54.52-.47.14-.69.24c-.22.11-.43.21-.65.31s-.45.18-.67.28-.49.1-.71.19c-.23.1-.48.12-.7.21-.23.09-.42.27-.65.35-.23.09-.44.22-.67.3-.23.09-.42.28-.65.36s-.46.17-.69.25-.43.26-.67.33c-.23.07-.54-.07-.77 0s-.45.2-.69.27c-.23.07-.48.09-.72.15s-.48.09-.72.15-.48.07-.72.13-.41.41-.64.46c-.24.05-.51-.03-.75.02s-.47.16-.71.21-.52-.13-.76-.08-.44.32-.68.36-.48.09-.72.13-.47.14-.72.17c-.24.04-.51-.11-.75-.08s-.48.08-.72.11-.48.1-.72.13-.5-.08-.74-.05-.47.24-.71.26-.5-.04-.74-.02-.48.05-.72.07-.47.19-.71.21-.48-.03-.72-.01c-.24.01-.48-.06-.72-.05s-.49-.18-.73-.17-.47.34-.71.35-.49-.23-.73-.22-.48.07-.72.08c-.24 0-.48-.08-.72-.08s-.48.18-.72.18-.48-.11-.72-.11-.4801.2-.72.19c-.24 0-.4801-.18-.7201-.19-.2399 0-.48.14-.72.14-.2399-.01-.4699-.27-.7099-.28s-.48-.02-.72-.03-.47-.07-.71-.09c-.24-.01-.48.01-.72-.01-.24-.01-.48-.01-.72-.03s-.4901.15-.73.13c-.24-.02-.46-.24-.7-.26s-.48.01-.72-.01-.49.14-.73.12-.48 0-.72-.03-.44-.33-.68-.36-.4701-.06-.7101-.09-.47-.09-.71-.13c-.2399-.03-.4699-.06-.7099-.09s-.47-.07-.71-.11c-.24-.03-.5101.14-.7401.11-.24-.04-.4599-.14-.6999-.18s-.46-.13-.7-.17-.49 0-.72-.04c-.24-.04-.49.02-.73-.02s-.44-.28-.67-.33-.5001.06-.7301.01-.4699-.08-.6999-.13-.47-.08-.7-.13c-.2301-.05-.47-.08-.7-.13s-.4401-.2-.6801-.25c-.23-.05-.4999.07-.7399.01-.23-.05-.4101-.35-.6401-.41s-.4999.03-.7299-.03-.48-.04-.71-.1-.46-.12-.69-.18-.44-.2-.67-.26-.49-.03-.72-.09-.42-.27-.65-.34-.49-.01-.72-.07c-.23-.07-.42-.27-.65-.34s-.47-.08-.7-.15c-.2301-.07-.47-.08-.7-.15s-.37-.4-.6-.47-.43-.22-.65-.29c-.23-.08-.54.12-.77.04s-.48-.06-.71-.14c-.22-.08-.34-.46-.57-.54-.22-.08-.49-.05-.71-.13s-.44-.18-.66-.26-.38-.33-.6-.42c-.2201-.09-.55.1-.77.01s-.4201-.24-.6401-.33-.4199-.23-.6399-.33c-.22-.09-.4901-.06-.7101-.15s-.3299-.43-.5499-.53-.4201-.23-.6301-.33c-.22-.1-.4599-.13-.6799-.23s-.44-.18-.66-.28-.41-.25-.62-.35-.51-.04-.72-.14-.3901-.29-.6001-.4c-.2099-.11-.48-.1-.69-.21s-.4699-.13-.6799-.24-.28-.48-.49-.6c-.21-.11-.54.01-.75-.11-.21-.11-.42-.22-.63-.34s-.3001-.44-.5101-.56c-.2099-.12-.3999-.25-.6099-.37s-.4801-.12-.6801-.25-.4699-.15-.6699-.27c-.21-.13-.37-.34-.57-.47-.21-.13-.4301-.24-.6301-.38-.21-.13-.3399-.38-.5399-.52s-.5101-.13-.7101-.27-.3699-.32-.5699-.47c-.2-.14-.25-.48-.45-.63s-.5601-.07-.7601-.22c-.19-.15-.31-.4-.5-.55s-.4599-.21-.6499-.37-.32-.38-.5-.54-.37-.32-.55-.48-.44-.25-.62-.42-.26-.43-.44-.61c-.17-.17-.2001-.49-.3701-.67s-.45-.24-.62-.42-.4599-.24-.6199-.43c-.16-.18-.34-.36-.49-.55-.16-.19-.06-.59-.21-.78s-.31-.38-.45-.57c-.15-.19-.4001-.31-.5401-.51-.1399-.2-.24-.43-.38-.63-.07-.11-.2199-.38-.3499-.58zm61.58 15.07c.01.13.09.11.11.25.24-.03.46-.05.7-.08s.47-.12.71-.15.47-.12.71-.15.51.22.75.2c.24-.03.45-.29.69-.31.24-.03.51.22.75.19s.45-.34.69-.37.5.18.74.15.48-.07.72-.1.48-.03.72-.06.47-.11.71-.14.47-.1.71-.13.47-.16.7-.19c.24-.03.51.2.75.17s.44-.32.68-.35.48-.04.72-.08c.24-.03.5.09.74.06s.48-.02.72-.06.47-.15.7-.18c.24-.04.47-.1.71-.14s.45-.22.69-.26.5.02.74-.02c.24-.05.51.03.75-.02s.45-.24.69-.29.44-.27.68-.33.48-.1.71-.16c.24-.06.47-.13.71-.19.24-.07.56.19.8.12.23-.07.46-.17.7-.24.23-.07.4-.34.64-.42.23-.08.43-.24.66-.33.23-.08.53.03.76-.05.23-.09.49-.1.72-.19s.43-.24.66-.34c.22-.1.47-.14.7-.24.22-.1.37-.37.59-.47s.46-.18.68-.29.4-.3.61-.41c.22-.11.55-.01.76-.13s.39-.31.6-.43.42-.26.63-.39.43-.23.57-.36c.18-.16.14-.46.21-.65s.29-.39.26-.63c-.03-.19-.12-.41-.21-.65-.08-.22-.21-.42-.3-.63s-.38-.34-.48-.54c-.1-.21-.04-.5-.14-.7-.11-.21-.13-.46-.24-.67-.11-.2-.19-.43-.32-.63-.12-.2-.54-.21-.67-.4s-.2-.42-.33-.61-.08-.52-.22-.7-.52-.18-.67-.36-.21-.43-.36-.61-.34-.32-.49-.49c-.16-.17-.39-.27-.55-.43-.16-.17-.22-.43-.38-.6-.17-.16-.26-.41-.43-.57-.18-.17-.53-.15-.71-.31s-.25-.45-.43-.61-.45-.23-.63-.39c-.19-.16-.17-.56-.35-.72-.19-.16-.44-.24-.63-.39s-.36-.33-.55-.48-.46-.2-.66-.35-.48-.17-.68-.31-.24-.51-.44-.65-.43-.23-.64-.37c-.2-.14-.42-.25-.63-.38-.2-.13-.37-.32-.58-.46-.21-.13-.51-.1-.72-.23s-.31-.43-.52-.55-.46-.18-.67-.3-.36-.35-.57-.47-.58.04-.79-.07c-.21-.12-.38-.32-.6-.43s-.39-.3-.61-.41-.39-.3-.61-.41-.54.01-.76-.1c-.22-.1-.35-.4-.57-.5s-.54.02-.76-.08-.35-.42-.57-.51c-.22-.1-.52-.03-.74-.12s-.46-.16-.69-.25-.48-.12-.7-.2c-.23-.09-.41-.3-.63-.39-.23-.09-.5-.04-.73-.13-.23-.08-.4-.33-.63-.41s-.5-.06-.73-.14-.36-.44-.59-.51c-.23-.08-.49-.07-.71-.15-.23-.08-.48-.1-.7-.17-.23-.07-.49-.06-.72-.13s-.4-.35-.63-.42-.48-.08-.71-.14c-.23-.07-.45-.19-.68-.26s-.5 0-.73-.07c-.23-.06-.51.04-.74-.03-.23-.06-.4201-.29-.6501-.35s-.49-.04-.72-.1-.45-.18-.69-.24c-.23-.06-.52.09-.75.03-.23-.05-.38-.48-.62-.54-.24-.05-.4999.04-.7399-.01s-.45-.22-.68-.27c-.24-.05-.51.09-.75.04s-.45-.21-.69-.25c-.24-.05-.48-.04-.72-.08s-.47-.13-.7001-.17c-.24-.04-.5099.11-.7399.07-.24-.04-.4301-.34-.6701-.37-.24-.04-.4899.02-.7299-.02s-.4801-.08-.7101-.11c-.24-.03-.47-.11-.71-.14-.2399-.03-.4999.08-.7399.06-.24-.03-.4901.02-.7301-.01-.2399-.03-.48-.02-.72-.05s-.4599-.27-.6999-.3c-.24-.02-.5001.16-.7401.14s-.45-.34-.69-.36-.51.33-.75.32c-.24-.02-.4499-.42-.6899-.44s-.49.04-.73.03-.4901.17-.7301.16c-.2399-.01-.48-.03-.72-.04s-.48-.16-.72-.17-.48.01-.72 0-.48 0-.72-.01-.4799.15-.7299.15-.48-.16-.72-.16-.48.15-.72.15-.48-.07-.72-.07-.48-.09-.72-.09-.48-.07-.72-.07c-.24.01-.48.02-.72.03s-.47.23-.71.25c-.24.01-.49-.13-.73-.12s-.4901-.07-.7301-.06-.48.08-.72.1-.4799 0-.7199.02-.4701.16-.7101.18c-.2399.02-.4899-.05-.7299-.03s-.4701.12-.7101.15-.4599.2-.6999.23-.51-.2-.75-.17-.46.22-.69.25c-.24.04-.45.23-.69.27s-.51-.14-.75-.1-.48.07-.71.11c-.24.05-.4101.39-.6501.44s-.51-.1-.75-.05c-.23.05-.46.15-.69.2-.23.06-.4699.12-.6999.18s-.4401.21-.6701.27-.4399.19-.6799.25c-.23.07-.54-.12-.77-.05s-.3801.38-.6101.45-.55-.15-.78-.07c-.2299.08-.4399.19-.6699.27s-.36.41-.59.49c-.22.08-.4501.15-.6801.24s-.5399-.04-.7599.05-.4101.25-.6201.34c-.22.09-.3399.4-.5499.5s-.51.03-.72.13-.4501.15-.6601.26c-.2099.11-.42.22-.63.33s-.4699.14-.6699.26-.3001.42-.4901.55c-.2.12-.3499.32-.5499.45-.19.13-.52.08-.71.22s-.22.49-.4.64-.55.08-.72.23c-.18.15-.22.46-.39.62s-.3201.34-.4801.51-.3099.35-.46.53c-.15.18-.52.18-.66.37-.14.18-.0399.56-.1699.75-.14.19-.36.32-.48.52-.13.2-.12.47-.24.67-.13.23-.3801.37-.48.57-.12.23-.12.5-.21.71-.11.24-.4.39-.46.6-.08.25-.2101.51-.2101.73-.01.25.1301.51.2101.74.07.22.19.43.34.65.12.19.32.34.5.54.15.17.3499.3.5399.49.16.16.2301.44.4201.62.17.16.4999.16.6799.32s.3101.36.4901.52.33.34.52.49c.18.15.3299.34.5199.49s.4.26.59.4c.19.15.3501.33.5401.47s.38.28.58.42c.19.14.43.22.62.35.19.14.34.35.53.48.2.13.36.31.56.44s.52.07.72.2.28.44.49.57c.2.12.48.12.69.24.2.12.46.14.67.26s.3899.27.5999.39c.21.11.32.41.53.52s.51.05.72.15c.21.11.45.15.66.26.21.1.31.44.53.54.21.1.4301.2.6401.3.22.1.41.24.63.34s.41.24.63.33.4999.04.7199.13.4901.04.7101.13.38.33.6.41.44.16.67.25c.22.08.4199.22.6499.3.22.08.4301.21.6501.29s.5-.01.73.07c.22.07.4.29.63.36s.49.02.72.09.4299.23.65.3c.23.07.45.18.67.25.23.07.49.04.72.11.23.06.43.23.66.29s.51-.04.74.02.46.12.69.18.4299.23.6699.29c.23.06.5101-.06.7401-.01.23.06.48.06.71.11.23.06.4199.31.65.36.23.05.46.15.69.21.23.05.5099-.07.7399-.02s.4301.25.6701.3c.23.05.52-.17.76-.12.23.05.45.19.68.24s.46.15.69.19c.23.05.46.15.69.19s.5-.07.74-.02c.23.05.41.41.64.46s.49.01.72.05c.23.05.4599.16.6899.21s.4901-.03.7301.01c.23.04.45.18.69.23.23.04.53-.24.76-.19.23.04.45.18.69.22.23.04.4699.09.6999.13.24.04.48.01.71.05.24.04.45.2.69.23s.4901-.06.7301-.03.44.35.67.38c.24.03.49-.05.72-.02.24.03.48-.02.72.01s.4799-.05.7199-.02.4501.32.6801.35.5-.2.74-.17c.24.02.4799.01.7099.03.24.02.4501.35.69.37.24.02.4801-.01.72.01.24.02.4801-.06.7201-.05.2399.02.4899-.04.7399-.03.24.01.4901-.05.7401-.04.24.01.4899.08.7299.09s.4901.12.7301.12.4899.08.7399.08c.24 0 .4901.07.7401.07.24 0 .4899-.2.7299-.21s.4901-.15.7301-.15c.25 0 .4899.05.7399.04s.4901.04.7401.04.49.06.74.06.49-.04.74-.04c.1-.06.29.07.54.07zm-59.94-20.92c.11-.22.2-.57.31-.78.12-.21.2399-.42.3699-.63s.2001-.45.3301-.65c.13-.21.22-.45.35-.64.14-.2.51-.23.65-.43.15-.19.1099-.53.2599-.72s.5201-.2.6801-.38.11-.56.28-.73c.17-.18.5-.18.68-.35s.3399-.34.5199-.51c.18-.16.38-.3.56-.45.19-.15.34-.34.53-.49s.3601-.33.5601-.47.34-.36.55-.49c.2-.13.5399-.03.7399-.16s.2701-.47.4801-.59.42-.22.63-.34.4899-.09.6999-.2.44-.18.66-.28c.21-.11.3901-.28.6101-.38s.4199-.23.6399-.32c.2201-.1.3801-.32.6001-.42.22-.09.48-.08.7-.17s.49-.05.71-.14c.22-.08.4-.29.62-.37s.3999-.32.6199-.39c.23-.08.4601-.13.6901-.2l.69-.21c.23-.07.55.19.78.13s.4499-.15.6799-.21.4101-.31.6401-.36c.23-.06.44-.2.68-.25.23-.05.5099.11.7399.06s.48-.01.72-.06c.23-.05.45-.15.69-.19.23-.04.4801-.03.7101-.07s.44-.26.68-.29c.23-.04.48-.03.71-.06.24-.03.46-.15.7-.18s.5.18.74.16c.24-.03.46-.13.7-.16s.47-.06.71-.09c.24-.02.48 0 .71-.02.24-.02.45-.26.69-.28s.49.17.73.15.47-.07.71-.08c.24-.02.4699-.07.7099-.09s.4601-.25.7001-.26.48.16.72.15.4799.09.71.08c.24-.01.4699.04.7099.03.24 0 .4701-.35.7101-.35s.47.07.71.08c.24 0 .47.25.7099.25.24.01.4801-.29.72-.28.24.01.47.13.71.14s.4801-.02.7101-.01c.24.01.48-.08.72-.07s.4699.17.6999.19c.24.01.4701.14.7001.16.24.02.49-.22.73-.2s.46.2.7.21c.2399.02.48-.09.72-.07s.4699.36.7099.38.5001-.06.7401-.04.4899.08.7299.1.5001-.08.7401-.06.5-.1.75-.08c.24.02.4599.32.6999.35s.4901-.01.7401.02c.24.03.49.03.7299.06.24.03.4801.13.72.16.24.03.5101-.12.75-.08.24.03.4601.27.7001.31s.5 0 .74.04.46.21.7.25.54-.22.78-.18c.23.04.45.18.68.23s.4499.18.6799.22c.2301.05.44.19.68.24.23.05.52-.14.75-.09s.4201.31.6501.36.52-.13.75-.07c.23.05.4099.34.6399.4.2301.06.5001-.06.7301 0s.4699.09.6999.15.4801.05.7101.11.42.25.65.31.49-.01.72.06c.23.06.41.3.64.36s.49.03.71.09.37.42.6.49.48.06.7.13.47.09.69.16.48.06.71.13.38.35.61.43c.22.08.47.09.69.17s.43.21.65.29.49.03.71.11.5 0 .73.08c.22.08.39.32.61.41.22.08.47.09.69.18.22.08.42.23.64.32s.52-.02.74.07.3.53.52.62.49.04.71.14c.22.09.4.29.62.39.22.09.52.02.74.11.22.1.4.3.62.4s.46.15.68.25.42.24.64.34.52.03.74.14c.22.1.32.45.54.55.22.11.47.13.69.24s.43.23.64.34.41.27.62.38.5.1.71.22.46.17.67.29.44.22.64.34c.21.12.3.44.51.57s.52.08.73.21.25.51.45.64.61-.04.81.09c.2.14.18.59.37.73.2.14.43.22.63.36s.51.13.7.27l.57.45c.19.15.29.41.48.57.19.15.39.29.57.45s.37.31.55.47.47.21.64.37c.18.16.25.44.42.61s.45.23.62.41c.16.17.27.39.44.56.16.17.25.41.4.58.16.17.25.4.4.58s.31.34.46.52.47.22.61.4c.15.18.18.46.32.64.15.18.21.42.36.61.14.18.33.33.47.52.14.18.26.39.4.57s.38.29.53.48c.14.18.21.43.36.61s.35.32.5.5.35.25.5.43c.17-.18.49-.19.64-.39s.16-.51.29-.72c.12-.22.09-.51.19-.74s.39-.39.47-.63c.07-.24.16-.49.21-.73s-.21-.54-.18-.79.25-.48.26-.73-.04-.5-.05-.75-.04-.49-.07-.73c-.03-.25-.16-.47-.22-.71-.05-.24-.17-.45-.24-.69s.1-.55.02-.78c-.09-.23-.41-.36-.51-.58s.07-.58-.05-.8-.27-.42-.4-.63-.48-.27-.62-.48c-.14-.2-.26-.41-.41-.61s-.11-.54-.27-.73-.37-.33-.53-.52c-.16-.18-.49-.21-.66-.39s-.2-.48-.37-.66c-.17-.17-.3-.39-.47-.56s-.35-.34-.53-.5c-.18-.17-.29-.41-.48-.57-.18-.16-.51-.16-.69-.31-.19-.16-.42-.25-.61-.4s-.24-.48-.43-.63-.55-.08-.74-.22-.23-.52-.43-.66-.51-.12-.71-.25c-.2-.14-.41-.25-.62-.38-.2-.13-.42-.25-.62-.37-.21-.13-.27-.49-.48-.61s-.58.02-.79-.1-.37-.34-.58-.46-.49-.11-.71-.22c-.21-.12-.36-.36-.57-.47-.22-.11-.49-.11-.7-.22-.22-.11-.33-.42-.55-.52-.22-.11-.4-.29-.62-.4-.16-.07-.44.01-.66.03-.2.02-.41.09-.59.14-.24.08-.47.19-.72.21s-.51.06-.76.02-.45-.25-.69-.34c-.23-.09-.56 0-.78-.13-.21-.13-.4-.34-.58-.51s-.33-.39-.48-.59c-.15-.21-.29-.45-.49-.65-.19-.19-.43-.33-.65-.48-.23-.16-.45-.33-.7-.41-.23-.08-.46-.15-.69-.23s-.48-.08-.71-.16c-.23-.07-.43-.24-.66-.31s-.45-.2-.68-.27-.53.07-.76 0-.4-.36-.63-.43-.51 0-.74-.06c-.23-.07-.49-.03-.73-.1-.23-.07-.45-.18-.69-.24-.23-.06-.41-.33-.65-.39-.23-.06-.52.06-.75 0s-.49-.05-.72-.11c-.24-.06-.41-.37-.64-.43-.24-.06-.47-.12-.71-.17-.24-.06-.46-.16-.7-.21s-.46-.16-.7-.21-.51.05-.74 0c-.24-.05-.5.04-.74-.01s-.44-.26-.6801-.31c-.24-.05-.4799-.09-.71-.14-.2399-.05-.4599-.15-.6999-.2s-.4701-.14-.7101-.18-.51.08-.75.04-.45-.23-.69-.27-.4999.05-.7399.01-.4601-.17-.7001-.21-.47-.12-.71-.15c-.2399-.04-.4899.02-.7299-.01s-.4701-.17-.7101-.2-.4999.1-.7399.07-.48-.06-.72-.09-.47-.18-.71-.2c-.24-.03-.5001.13-.7401.1s-.4899.01-.7299-.02c-.24-.02-.4601-.25-.7-.28-.24-.02-.4801-.09-.7201-.11-.2399-.02-.4999.14-.7399.12s-.47-.19-.71-.21-.5001.24-.7401.22-.48-.13-.72-.14-.48-.08-.72-.09-.48-.08-.72-.09-.4899.14-.7299.13-.4701-.34-.7101-.35-.4899.07-.7299.06-.47-.09-.71-.09c-.24-.01-.4701.12-.7101.11-.24 0-.4699-.1-.7099-.1s-.47.32-.71.32-.4701-.1-.7101-.1-.47-.01-.7099-.01c-.24 0-.47.07-.71.07s-.47-.12-.71-.11c-.24 0-.47.14-.7.15-.24.01-.48-.27-.72-.26s-.4701.13-.7001.14c-.24.01-.4699.09-.6999.11s-.4601.13-.7001.14c-.2399.01-.4899-.25-.72-.23-.23.02-.45.27-.69.29s-.4699.07-.6999.09-.5-.27-.73-.25c-.2301.02-.47.09-.7.11s-.46.15-.69.17-.46.12-.69.15-.46.13-.69.16-.4701-.01-.7101.02c-.23.03-.48-.04-.71-.01-.2299.03-.4799-.01-.7099.02s-.48 0-.71.03c-.23.04-.43.27-.67.31-.23.04-.44.21-.67.26-.23.04-.47.03-.7101.07-.23.04-.4799.04-.7099.08-.23.05-.48.03-.71.07-.23.05-.46.13-.69.18s-.5101-.11-.7401-.05c-.23.05-.4099.33-.65.38-.23.05-.4999-.03-.7299.03s-.3901.39-.6201.45-.4699.07-.6999.13-.48.04-.71.11-.49.03-.72.1-.4301.23-.6501.3c-.23.07-.4999 0-.7299.07-.22.08-.38.36-.6.44s-.4.29-.62.37-.5501-.1-.7701-.01-.4699.12-.6899.21-.32.44-.54.54-.46.13-.68.23c-.21.1-.49.08-.7.19s-.3001.45-.5101.56-.5599-.04-.7699.07-.32.4-.53.52-.51.08-.71.2-.35.35-.5501.48c-.2.13-.2699.42-.4599.56s-.4801.13-.6701.28c-.18.15-.24.43-.41.59s-.3899.26-.5499.43-.28.37-.43.55-.3.34-.44.53-.31.34-.44.54-.27.38-.38.58c-.11.21-.13.45-.23.66s-.5.3-.58.52-.05.49-.11.71c-.06.23-.1901.44-.2401.67-.04.23.1101.49.0801.73-.02.23.06.46.05.7 0 .23-.24.47-.22.71.02.23.25.44.29.67s-.01.47.04.7c.05.22.12.45.19.67s.12.45.21.67c.01.17.11.5.21.71zm90.02 16.47c-.23.11-.53.33-.76.44s-.46.22-.7.33c-.23.11-.43.28-.67.39-.23.11-.44.28-.67.39s-.58-.03-.81.07c-.23.11-.37.43-.61.53s-.57-.05-.81.04c-.23.09-.35.45-.58.54s-.54-.05-.77.04c-.23.08-.45.18-.68.26s-.47.13-.7.21-.45.2-.68.27-.45.19-.69.26c-.23.07-.44.23-.68.3s-.54-.13-.77-.06c-.24.06-.41.37-.64.43-.24.06-.48.1-.72.15-.24.06-.51-.05-.75.01s-.49.05-.72.1c-.24.05-.46.17-.7.22s-.47.12-.71.16-.46.23-.7.27-.5-.03-.74.01-.5-.05-.74-.02c-.24.04-.46.21-.7.24s-.46.23-.7.26-.49.04-.73.07-.49.06-.73.09-.52-.28-.76-.26-.48.08-.72.1-.47.24-.71.26-.48.13-.72.15-.5-.18-.75-.16c-.24.02-.49-.05-.74-.04s-.48.1-.73.11-.49-.03-.73-.01c-.24.01-.46.21-.7.22s-.47-.02-.71-.01-.47.1-.7.11c-.24.01-.48-.23-.71-.23-.24 0-.47.08-.7.09-.24 0-.47.02-.71.02s-.47-.04-.71-.05c-.24 0-.47.21-.71.21-.2401 0-.47-.22-.7-.22-.24 0-.4701.02-.7101.01s-.4699.03-.7099.02-.48.2-.71.19c-.24-.01-.4601-.2-.7001-.21-.2399-.01-.4699-.12-.6999-.14-.24-.01-.47-.07-.7-.08-.24-.01-.49.33-.72.31-.24-.01-.4701-.1-.7001-.11-.24-.01-.4599-.27-.6899-.28s-.49.27-.72.26-.46-.14-.7-.15-.48.01-.72 0c-.24-.02-.4901.07-.7301.05s-.4699-.18-.7099-.2-.47-.15-.71-.17-.5.21-.74.18c-.24-.02-.46-.21-.7-.24-.24-.02-.4901.07-.7301.04s-.4399-.37-.6799-.4-.4901.04-.7301.01-.4699-.1-.7099-.13-.4901.06-.7301.02-.5.08-.7399.04c-.24-.03-.44-.34-.67-.38-.24-.04-.48-.02-.72-.05-.24-.04-.48-.05-.72-.09s-.46-.15-.7-.19-.51.1-.74.06c-.24-.04-.44-.29-.6701-.33-.2399-.04-.4899-.01-.72-.06-.2399-.05-.4499-.22-.6799-.27-.24-.05-.54.21-.77.16-.24-.05-.45-.2-.69-.25s-.45-.19-.69-.24c-.23-.05-.45-.2-.68-.25s-.53.13-.76.07-.42-.32-.65-.38-.52.12-.75.06-.4-.35-.63-.41-.51.05-.74-.01-.47-.09-.7-.15-.48-.06-.71-.12-.4301-.25-.6501-.32c-.23-.06-.4999 0-.7299-.06-.23-.07-.4101-.3-.6401-.36-.23-.07-.49-.03-.72-.1s-.3699-.42-.5999-.49-.4801-.06-.7101-.13-.4699-.09-.6999-.16-.4801-.06-.7101-.13-.3799-.35-.6099-.43-.4701-.09-.7001-.17-.4299-.21-.6499-.29-.49-.03-.72-.11c-.22-.08-.5101 0-.7301-.09-.22-.08-.3899-.33-.6099-.41s-.4701-.09-.7001-.18c-.22-.09-.4199-.24-.6399-.32-.22-.09-.52.01-.74-.08s-.29-.54-.51-.63-.49-.05-.71-.14-.39-.3-.61-.39c-.22-.1-.5101-.02-.7301-.12s-.3799-.3-.5999-.4-.45-.16-.67-.26c-.21-.1-.41-.25-.62-.35s-.5101-.04-.7301-.14c-.21-.11-.3099-.45-.5199-.56s-.46-.14-.68-.25c-.21-.11-.42-.23-.63-.34s-.4-.27-.6-.38c-.21-.12-.49-.1-.69-.22s-.4501-.17-.6601-.29-.4399-.22-.6499-.35-.3001-.45-.5101-.58-.5299-.09-.7299-.22c-.21-.13-.2501-.52-.4601-.65s-.6199.04-.8199-.09c-.21-.14-.2-.6-.4-.73-.21-.14-.45-.21-.66-.35-.21-.13-.4501-.1-.6501-.23.11.19.2501.27.3601.44.12.18.13.44.26.61s.29.33.43.49.29.32.44.47c.17.17.45.24.62.41s.23.45.41.62c.17.17.45.23.62.39.18.16.3.38.48.54s.29.39.47.55.31.38.49.53c.18.16.38.3.56.45.19.15.51.13.7.28s.29.42.4799.56c.19.15.3201.37.5201.51.19.14.42.24.61.39.19.14.37.31.57.45s.46.18.66.31c.2.14.3399.35.5399.48s.4401.2.6501.33c.2.13.48.14.68.26.2.13.27.48.47.61.2.12.4899.12.6999.24s.4901.1.7001.22.3099.43.5199.55.4101.25.6201.37c.21.11.57-.04.78.07s.3299.41.5399.52.4501.18.6601.29.4299.21.6499.32.47.13.69.23.4601.15.6801.26c.22.1.32.44.53.54.22.1.54-.03.75.07.22.1.31.48.53.57s.4499.16.67.25c.22.09.54-.06.76.03s.43.2.65.29.3499.4.5799.49c.22.09.47.1.69.19.22.08.52-.05.75.03.22.08.3801.34.6101.42.22.08.43.21.65.29s.4499.15.6799.23c.23.07.4201.25.6501.32s.52-.06.74.01c.23.07.4799.06.6999.13.23.07.3901.36.6201.42.23.07.5299-.12.7599-.06.2301.06.3801.4.6101.46s.51-.06.74-.01c.23.06.46.1.69.16s.46.1.69.15c.23.06.4.38.63.43s.5299-.2.7599-.15.4401.21.6701.26.49-.04.73 0c.23.05.4399.24.6699.28.2301.05.49-.03.7201.01.23.04.43.3.66.35.23.04.45.17.69.2.23.04.49-.03.72.01s.47.06.7099.09c.2301.04.48 0 .71.04.23.03.4801.01.7101.04s.45.22.68.25c.24.03.5-.16.73-.13.24.03.46.12.6999.15.24.03.4701.1.7001.12.24.03.4699.1.6999.12.24.02.4801 0 .7101.03.24.02.4699.09.6999.11.24.02.4701.04.7101.06s.48-.03.72-.02.4699.13.7.15c.2399.02.4699.09.7099.1.24.02.4901-.19.7301-.18s.46.25.7.27c.24.01.48-.12.72-.11s.48-.09.72-.08.48.07.71.07c.24.01.47.22.71.23.2399 0 .48-.18.72-.18s.48-.06.72-.06.48.26.72.26.48 0 .72-.01c.24 0 .48.04.72.04.24-.01.48.04.72.03s.47-.17.71-.18.47-.17.71-.18.49.14.73.13.48-.04.72-.05c.24-.02.48.03.72.01s.48.01.72-.01.46-.22.7-.24.49.1.73.07.46-.19.7-.22.49.04.73 0c.24-.03.48-.02.72-.06.24-.03.46-.17.7-.2.24-.04.49.02.73-.02s.44-.25.68-.29.47-.08.71-.13c.24-.04.49.03.73-.02.23-.05.43-.28.67-.33.23-.05.45-.16.69-.21.23-.05.51.1.75.04.23-.05.48-.07.71-.12.23-.06.42-.29.65-.35s.5.03.73-.04c.23-.06.38-.39.61-.46s.48-.04.71-.11.47-.09.7-.17c.23-.07.47-.1.7-.18s.4-.31.62-.39.56.14.78.06.42-.25.64-.34.47-.11.69-.2.39-.3.61-.4.48-.11.69-.21c.22-.1.29-.5.51-.61.21-.1.47-.12.68-.23s.43-.21.64-.32.39-.28.6-.4.48-.13.69-.25.34-.36.55-.49c.2-.13.56-.03.76-.16.2-.14.33-.37.53-.51.19-.14.34-.35.53-.5s.3-.38.48-.55c.18-.16.54-.13.72-.3.17-.17.16-.51.33-.69.16-.18.29-.38.44-.56.15-.19.55-.19.69-.38.13-.16.22-.54.35-.74z"/><path d="m46.08 1.99001c0 .26.29.41999.29.66999 0 .26-.02.52001-.01.77001 0 .26-.2901.51999-.2901.76999s.35.50001.35.76001c0 .25-.0599.51-.0599.77 0 .25-.1801.6-.1701.86.23-.02.54-.30001.76-.32001.23-.02.4601-.01999.69-.03999.23-.02.45-.05001.68-.07001s.4801.24.7101.22.4399-.23.6599-.25c.23-.02.4701.19.7.17.23-.02.42-.37.65-.39s.46.02.69 0 .61.18001.84.16001c-.06-.22-.2399-.54001-.2999-.76001s-.25-.4-.31-.61c-.06-.22-.04-.45-.1-.67-.0601-.21-.1201-.43-.1901-.64s-.1399-.41999-.2099-.62999c-.09-.23-.1601-.45-.1701-.64-.01-.24.02-.49001.12-.67001s.3-.33999.5-.459995c.17-.1.35-.299995.57-.369995s.49-.030011.71-.090011c.23-.06.4801-.009988.7101-.049988s.46-.030013.69-.060013.46.000006.69-.009994.4699-.289999.6999-.279999.4701.100005.7001.130005.4399.2.6699.25c.22.06.38.289995.6.369995s.47.029999.69.139995c.2001.1.5201.03001.7201.16001.18.11.3699.40999.4599.67999.08.21-.19.54-.15.78.04.25.26.47.27.69.02.3-.0899.57-.0699.8.03.33.34.52001.4.71001.09.29.06.57999.34.65999.1899.06.4699-.17.7999-.17.22 0 .48.3.78.3.23 0 .46-.23.69-.24s.4701.19001.7001.18001.46-.13001.69-.13001.48-.1.7-.08c.23.03.49 0 .71.06s.42.24.63.35c.2.1.29.38001.49.52001.19.14.5099.21.6799.42.18.23.2201.49999.2301.72999.02.24.24.47001.25.71001s-.23.49999-.22.73999.15.48.16.72.14.48.15.72-.0801.49-.0701.73.1801.47.2001.72-.09.49-.07.73c.0099.24.0799.48.0899.72s-.0399.49-.0199.73c.01.24-.02.49-.0101.73.01.24.1801.48.1901.72.0099.24-.08.49-.06.73s.0099.49.0199.73-.1199.49-.0999.73c.01.24.35.47.37.71.01.24-.24.5-.23.74.0099.24.09.48.11.72.01.24.17.48.18.72s.06.48.07.72-.02.49 0 .73c.01.24-.08.49-.07.73s.21.47.22.72c.01.24.01.48.03.73.01.24-.1501.49-.1401.74.01.24.1501.48.16.72.01.24.05.48.06.73.01.24.04.48.06.73.01.24.1001.48.1101.72s-.0901.49-.0801.73.1401.48.1501.72c.01.23-.02.46-.01.69s.02.46.04.69c.01.23-.1701.47-.1501.7s.16.44.19.67-.0599.47-.0199.7c.05.3.1499.55.1199.78-.04.29-.1799.52-.3399.71s-.42.23-.68.34c-.22.09-.43.26-.72.31-.24.04-.5001-.05-.7301-.01-.24.04-.4499.2-.6799.25s-.46.15-.69.2c-.24.04-.5-.07-.74-.03s-.43.28-.6701.33c-.2299.04-.5099-.11-.7399-.06s-.4701.11-.7001.16-.48.03-.72.07-.4299.29-.6699.34c-.23.05-.48.03-.72.08s-.5001-.09-.7401-.05c-.23.04-.3999.46-.6399.5s-.5401-.28-.7701-.24-.4199.34-.6599.38-.47.09-.7.14-.49 0-.72.04-.4301.29-.6701.33-.4799.03-.7199.07-.48.03-.72.07-.47.11-.7.15c-.24.04-.51-.16-.75-.13-.24.04-.45.2-.69.24-.2401.04-.4601.19-.6901.23-.24.03-.49-.06-.73-.02-.24.03-.4899-.03-.7299 0s-.48.01-.72.05c-.24.03-.4601.2-.7001.23s-.4699.09-.7099.12-.4601.21-.7001.24-.51-.17-.75-.14-.45.26-.69.29-.47.11-.71.14-.5199-.26-.7599-.23-.4701.12-.7101.14c-.24.03-.45.26-.69.29s-.48.03-.72.06-.4899-.04-.7299-.01-.4701.13-.7101.16-.4999-.15-.74-.13c-.24.03-.45.26-.69.29s-.4699.11-.7099.13c-.24.03-.48.07-.72.1s-.5-.13-.74-.1c-.24.02-.46.22-.7.24s-.51-.22-.75-.2-.4601.26-.7001.28-.47.16-.71.18-.4899-.03-.7299-.01-.48.01-.72.03-.48.01-.72.03-.4901-.03-.7401-.01c-.24.02-.48.16-.72.18s-.48.14-.72.16-.5-.15-.75-.13c-.24.02-.4999-.11-.7399-.09s-.4801.12-.7301.13-.4799.12-.7299.13c-.24.01-.48.17-.72.18s-.51-.34-.75-.32c-.24.01-.47.41-.71.42s-.5001-.21-.7401-.2-.48.24-.72.25-.4899-.04-.7399-.03c-.24.01-.49-.04-.74-.03-.24.01-.4901-.03-.7401-.02-.24.01-.4899.06-.7299.07s-.49.1-.73.11-.49-.09-.74-.08c-.24.01-.4901-.1-.7401-.09-.24.01-.4899-.04-.7299-.03s-.49.05-.73.06-.4801.3-.7201.31-.4999-.33-.7399-.32-.4801.21-.7301.22c-.24.01-.4899.13-.7299.14s-.4901-.14-.7401-.13c-.27.01-.5199.08-.7599.07-.27-.01-.5-.14-.73-.18-.27-.05-.5701.09-.7901.01-.25-.1-.53-.2-.71995-.35-.2-.15-.23999-.49-.38999-.7-.13-.2-.31-.39-.41-.64-.08-.22.07999-.52.01999-.78-.05-.23-.28001-.44-.32001-.7-.03-.24.08002-.5.05002-.74s-.11002-.48-.14002-.72.06-.5.03-.74-.34-.45-.38-.69c-.03-.24-.09-.48-.12-.72s.09-.5.06-.75c-.03-.24.08002-.5.05002-.75-.03-.24-.42001-.44-.45001-.68s.1-.51.07-.75.09-.5.06-.75c-.03-.24-.13999-.47-.17999-.72-.03-.24-.04001-.49-.07001-.73s-.13-.48-.16-.72.01999-.49-.01001-.74c-.03-.24-.01999-.49-.04999-.73-.03-.25-.13999-.48-.17999-.73-.03-.25 0-.5-.03-.75s-.16-.48-.19-.73-.26001-.47-.29001-.71c-.03-.25-.09-.49-.12-.74s0-.5-.03-.75.04001-.51.01001-.75c-.03-.25-.07-.49-.1-.74s-.22-.47-.25-.72.11999-.52.08999-.76c-.03-.25-.23001-.47-.26001-.72s.14-.52.12-.76c-.03-.25-.29-.47-.31-.71-.03-.25.15003-.52.12003-.76-.02-.22-.12001-.43-.13001-.65s.19-.44.19-.67c0-.22-.11-.44-.1-.66s.11998-.43.13998-.65-.23-.47-.19-.69.39-.37.44-.58c.06-.23.07-.49.25-.73.16-.21.28002-.5.49002-.66.24-.18.49998-.4.72998-.45s.50002.12.73002.07.43998-.18.66998-.22.43-.26.65996-.3c.23-.04.4801.03.7101-.01s.4999.12.7299.09c.23-.04.42-.36.65-.4s.4701-.05.7001-.09.4799.04.7099 0c.23-.03.49.07.72.04s.4401-.22999.6701-.26999.46-.1.69-.14.4699-.05001.6999-.09001.4801.07001.7101.03001.4499-.13001.6699-.17001c.23-.04.46-.05.68-.09.23-.04.4401-.16.6701-.2s.43-.21999.66-.25999.4799.1.7099.06.4801.06.7001.03c.23-.04.4099-.35.6399-.39s.5101.24999.7301.20999.4499-.08.6799-.11c.23-.04.4301-.23.66-.26.25-.04.4-.23.56-.3.23-.1.59-.05.68-.22s.0801-.48.0501-.72c-.02-.19-.1501-.39-.2301-.62s-.1099-.47999-.1799-.70999c-.08-.23-.2701-.43-.3501-.66-.07-.23-.1399-.47-.2099-.7s-.2601-.43001-.3301-.67001.07-.52999.01-.76999c-.0699-.24-.26-.44-.32-.67-.07-.26-.1699-.51-.1699-.72 0-.27.1-.550006.22-.740006.12-.18.38-.320004.63-.410004.19-.07.45-.080002.72-.080002.24 0 .4799.210007.7199.210007s.4701-.190003.7101-.190003.47-.0999904.71-.0999904.4799.0599874.7099.0499874c.24 0 .4801-.1299892.7101-.1299892.24 0 .48.1100002.71.1100002s.4799.229996.7099.229996c.24 0 .48-.350006.72-.350006s.47.24.71.25c.24 0 .48-.2099915.72-.2099915s.4701.2699985.7101.2799985.48-.12001.72-.12001c.24.01.47.090006.71.100006.25.01.5-.019994.75-.009994s.51-.170004.76-.160004.5.010004.75.020004.4799.409993.7299.429993c.25.01.5-.029995.75-.009995s.5.019994.75.039994.5101-.090002.7601-.080002c.25.02.48.23.73.25s.49.060002.74.080002.5.039997.75.059997.5199-.189998.7699-.169998.4801.190001.7301.220001c.26.029999.4899.119999.7399.199999.25.07.5801-.1.8301 0 .24.1.3999.39.6399.49.29.1.4101.24001.6601.33001zm-20.03-.10001c.07.23.3999.52.4599.74.07.23.1101.46.1701.68.07.23-.16.54001-.09.76001.07.23.46.35999.52.58999.07.23.07.47001.13.69001.07.23-.08.50999-.02.72999.07.23.42.37.49.59.07.23.11.46001.1799.68001.07.22.15.44.21.66.1.31-.1.61999-.16.84999s-.12.5-.52.59c-.24.05-.52-.12999-.76-.07999s-.3999.43-.6399.48-.49.03999-.72.08999c-.24.05-.54-.19-.77-.14-.24.05-.4401.25-.6801.3s-.44.24-.68.29-.49.02-.73.07-.48.09-.71.14c-.24.05-.4799.1-.7099.15-.24.05-.47.12-.71.17s-.4701.13-.7101.18-.48.08-.72.13-.46.2-.69.25c-.24.05-.4999-.02-.7299.03-.23.04-.48-.02-.71.02s-.47.03-.7.07-.4701.03-.7001.06-.43.35-.66.38-.47 0-.71.03c-.23.03-.4799-.06-.7099-.03s-.49-.12-.72-.09-.45.2-.68.23-.4401.27-.6701.31c-.23.03-.4699.05-.6999.08-.22.03-.53005-.23-.70005-.15-.19.1-.22998.4-.29998.61-.05.16-.19002.37-.14002.63.04.25.29.52.25.79-.04.26-.32999.51-.29999.75s.29999.46.32999.7-.25.52-.22.76.27002.46.30002.71c.03.24-.16001.51-.13001.76.03.24.16998.48.19998.72s.17002.47.20002.72c.03004.25.12004.48.15004.72s-.05.5-.02.74-.14005.51-.1101.76c.03.24.22.47.25.71s-.06.5-.03.75c.03.24.2601.46.2901.71.03.24-.2001.51-.1701.75s.1801.46.2101.7.1699.46.1999.7-.0499.49-.0199.73.2099.46.2399.7-.0499.49-.0199.73.1099.47.1399.71 0 .49.03.73.01.48.04.72.21.46.24.7-.0399.49-.0099.73.04.48.07.72-.0801.5-.0501.74.3901.44.4201.68-.2101.51-.1801.75.13.47.16.71.2001.46.2301.7.0899.47.1199.71.0201.48.0501.72c.03.23-.05.47.02.67.08.21.3.25.5.36.16.08.29.12.57.1.24-.01.49.15.74.14.24-.01.48-.15.72-.16s.48-.05.72-.06.48-.04.72-.05.48-.1.72-.11.4899.1.7299.08.48-.13.72-.14.4901.03.7301.02.48-.02.73-.03.4899.17.7299.16.48-.15.72-.16.4901.09.7301.08.48-.13.72-.14.48.01.73-.01c.24-.01.4899.08.7299.07s.48-.13.72-.14.4901.12.7301.11.48-.14.72-.16c.24-.01.48-.09.72-.11.24-.01.4899.14.7299.12.24-.01.4701-.23.7101-.24s.5.17.74.16.48-.05.72-.07.49.03.73.01.47-.24.71-.25c.24-.02.4899.02.7299.01s.5001.15.7401.13.45-.41.69-.43.51.34.75.32.4599-.29.6999-.32c.24-.02.48-.05.72-.07s.4901.04.7301.02.4599-.26.6999-.28c.23-.02.4701.01.7101-.02.23-.03.48 0 .71-.02.23-.03.46-.09.7-.12.23-.03.4999.18.7299.15s.45-.19.69-.22c.23-.03.45-.18.69-.22.23-.03.48.06.72.03.2401-.03.48.03.7201 0 .23-.03.4799-.01.7099-.05.23-.03.4501-.2.6801-.24s.4599-.1.6999-.13c.23-.04.44-.22.68-.26.23-.04.5001.16.7401.12.23-.04.4299-.27.6699-.31.23-.04.46-.12.69-.16s.52.24.75.2.46-.13.69-.17.4301-.28.6601-.32.47-.05.7-.09.48.01.71-.03.45-.15.69-.19.4999.13.7299.09.43-.29.66-.33.46-.13.69-.17.46-.1.69-.14.5001.09.7301.05.4399-.25.6699-.29.5101.19.7401.15.43-.29.66-.33.45-.19.68-.23.48 0 .7099-.04c.23-.04.4701-.04.7001-.08s.4699-.05.6999-.09.4701-.01.7101-.05c.23-.04.4399-.2.6699-.24s.44-.18.68-.22c.23-.04.49.1.72.06s.49.06.72.02.4501-.16.6801-.21c.23-.04.45-.17.68-.21s.4399-.22.6699-.26.6501.21.8901.17c-.01-.24-.3701-.59-.3901-.82-.01-.24.2-.49.19-.73s-.2499-.46-.2599-.7.04-.48.02-.72c-.01-.24.03-.48.01-.72s.0199-.48.0099-.72c-.02-.24-.0699-.47-.0799-.71-.02-.24-.11-.47-.12-.71-.02-.24.08-.48.06-.72s.09-.48.07-.72.0299-.48.0099-.72-.0599-.47-.0799-.71-.3101-.46-.3301-.7.3201-.5.3001-.74-.2201-.46-.2401-.7-.1499-.47-.1599-.71c-.02-.24.12-.49.11-.72-.01-.24-.1-.47-.12-.71s.07-.48.06-.72-.2501-.46-.2601-.7-.08-.47-.09-.71c-.0099-.24.16-.49.15-.73s-.1-.47-.12-.71c-.01-.24.2101-.49.19-.73-.0099-.24-.2299-.46-.2399-.7s.11-.48.1-.72-.0701-.47-.0901-.71.1001-.48.0801-.72c-.01-.24-.3101-.46-.3301-.69-.01-.24-.0599-.47-.0699-.71s.1199-.48.1099-.72.1201-.48.1001-.71999c-.01-.24-.38-.45001-.4-.69001-.01-.24.13-.48.12-.72s.0699-.59.0499-.83c-.36-.08-.6099-.11-.7399-.09-.24.01-.48.01001-.72.02001-.2401.01-.47.1-.71.11s-.48-.05001-.72-.04001-.48-.01-.72 0-.47.11001-.71.12001-.48-.04-.72-.02c-.24.01-.4701.13-.7101.14s-.4699.22-.6999.24c-.24.01-.48.04999-.72.06999-.24.01-.48-.04-.72-.02-.24.01-.48-.07999-.72-.06999s-.48.04-.72.05-.47.18-.71.2-.49-.15-.73-.14c-.24.02-.47.21-.71.22-.24.02-.49-.17-.73-.16-.2401.02-.4601.25999-.7001.27999s-.4899-.17-.7299-.16-.47.11001-.71.12001c-.24.02-.49-.18-.73-.16s-.47.14-.71.16c-.23.02-.49-.05-.73-.02s-.42.34999-.65.39999-.55-.19999-.78-.11999c-.23.07-.4201.28-.6401.38-.24.11-.43.31-.66.36-.26.06-.5199.16-.7599.14-.26-.02-.44-.29001-.66-.40001s-.44-.17999-.6-.37999c-.14-.18-.43-.33-.52-.58-.08-.22-.03-.51-.06-.77-.02-.22.16-.46001.14-.69001-.02-.22-.33-.41999-.34-.64999-.02-.22-.01-.45-.03-.67s.08-.45001.07-.67001.1099-.45.0999-.68c-.01-.22-.19-.43999-.21-.66999-.02-.22-.0399-.40001-.06-.63001-.24-.01-.4399-.02999-.6799-.03999s-.48-.17001-.72-.18001-.4901.03-.7301.02-.4799-.03999-.7299-.05999c-.24-.01-.49.07-.73.05-.24-.01-.4901.12-.7301.11s-.48-.20001-.72-.21001-.48-.15999-.72-.17999c-.24-.01-.5.26-.74.25-.2399-.01-.4699-.35-.7099-.36s-.4801-.02001-.7301-.03001c-.24-.01-.4899.13001-.7299.12001s-.49.12-.73.11-.47-.32-.71-.34c-.24-.01-.49.04-.73.03s-.4901.05999-.7301.04999-.48-.06999-.72-.07999-.4899.11-.7299.09c-.24-.01-.4901-.03001-.7301-.04001-.2399-.01-.4899.10001-.7399.09001-.24-.01-.48-.24-.72-.25s-.4901.11-.7401.09-.6499-.17001-.8899-.18001zm27.9899 3.99c.25-.03.6201-.24.8301-.27.25-.03.48-.03.69-.06.24-.03.51.24.72.22.24-.03.31-.32.53-.35-.02-.28-.0001-.44999-.0201-.68999-.02-.28.18-.55.16-.8-.02-.27-.3399-.5-.3699-.75-.03-.36-.06-.49001-.1901-.62001-.1899-.19-.3099-.13999-.5799-.07999-.26.06-.6001-.09-.8001-.02-.32.1-.46.37999-.62.50999-.25.2-.52.38-.5.64.0201.24.43.42001.52.68001.08.25.1101.56.1201.81.03.25-.3001.54-.4901.77999z"/><path d="m119.51 42.63c-.2.17-.52.41-.7.56-.2.17-.46.23-.65.39-.19.17-.47.22-.66.38s-.15.59-.34.75-.42.22-.61.38c.06.23.1.45.16.7.06.24-.12.54-.06.78s.38.42.43.66c.06.24-.12.54-.06.78s.18.48.24.72c.07.27.12.48.12.68-.01.29-.04.48-.19.63-.15.16-.33.15-.62.15-.2 0-.44.09-.71 0-.22-.07-.41-.21-.62-.31s-.43-.18-.62-.31c-.2-.13-.44-.21-.6-.37-.2-.18-.32-.41-.48-.55-.21-.19-.43-.29-.6-.42-.23-.18-.33-.49-.52-.57-.24-.1-.5.09-.74.16-.19.05-.36.19-.6.34-.18.11-.54 0-.76.15-.18.13-.21.5-.42.66-.18.13-.49.09-.72.18-.23.1-.43.18-.65.16-.29-.03-.56.07-.78.03-.31-.06-.58-.14-.75-.24-.24-.15-.46-.42-.44-.71.01-.2.29-.4.41-.69.08-.21.19-.43.32-.7.11-.22.07-.51.19-.74.11-.22.38-.36.5-.59.11-.22-.05-.44.07-.67-.2-.14-.27-.24-.46-.38-.2-.14-.35-.34-.54-.48s-.46-.17-.66-.31c-.19-.14-.2-.53-.4-.67s-.52-.09-.72-.22c-.19-.14-.4-.32-.6-.46.11-.18.34-.33.43-.49.12-.2.19-.26.26-.4.24.05.44-.07.68-.02s.45.2.68.25c.24.05.45.23.68.28.24.05.49.06.73.09.24.04.5-.07.74-.05.21.02.35-.28.58-.45.21-.15.46-.24.63-.41.15-.14.4-.24.49-.44s-.02-.51.12-.67c.14-.18.5-.25.66-.48.16-.22.24-.51.4-.68.25-.28.45-.43.6-.38.22.07.52-.1.77-.04.24.06.39.41.62.5s.49.1.67.25.32.33.43.57c.09.2.29.41.31.7.02.31-.09.61.04.81.14.22.46.2.73.28.22.07.44.3.75.29.22-.01.44-.03.68.03.21.05.48-.04.71.04.2.07.42.15.66.23.21.1.55.28.79.34z"/><path d="m86.6299 42.6401c-.26 0-.5099.08-.7699.03-.26-.04-.5-.14-.74-.22-.25-.09-.54-.07-.76-.2-.24-.13-.45-.3-.64-.46-.2-.18-.2-.5-.32-.71-.13-.24-.43-.41-.44-.66-.01-.26.02-.54.08-.78.05-.25.2199-.48.3399-.7.11-.23.34-.37.5-.57.16-.19.29-.4.5-.56.2-.15.4501-.19.6801-.3.23-.1.37-.5.62-.56.24-.06.54.01.8.01.24-.01.51-.04.73.01.23.05.4599.19.6699.29.21.11.2501.44.4301.6.17.15.29.32.43.5s.42.27.52.48.3099.4.3699.63c.05.22-.04.49-.03.73.01.22-.0399.47-.1399.7-.09.2-.15.47-.31.66-.14.18-.3.4-.48.55s-.48.16-.69.27c-.21.12-.37.39-.59.46-.24.08-.5301-.2-.7601-.2z"/><path d="m0 54.88c.14-.21.0299829-.4499.169983-.6499.14-.2.500015-.25.640015-.45s.11-.51.250002-.71c.14-.2.31-.38.44-.58.14-.2.18998-.46.31998-.66.14-.2.51001-.24.64001-.44s.06998-.53.19998-.73.41001-.3.54001-.5c.11-.16.01001-.46.13001-.61.11-.15.53-.11.63-.27.13-.23.02001-.6.16001-.81.15-.22.25999-.48.42999-.67.18-.2.44999-.32.64999-.47.21-.15.43999-.32.67999-.41.23-.08.52001-.16.79001-.16.24-.01.48.23.75.29.23.05.43001.09.69001.19-.12.16-.16.31-.28.48s-.31.29-.43.46-.15002.41-.27002.58c-.14.2-.33999.37-.48999.57s-.37999.34-.52999.54-.25.44-.4.64-.34001.37-.48001.58c-.15.2-.24998.44-.38998.65s-.11.53-.25.74-.55003.24-.68003.46c-.13.21-.20998.46-.32998.68-.13.23-.17999.48-.32999.66-.17.21-.41001.26-.60001.39-.21.14-.37001.25-.61001.31-.23.06-.43999.35-.70999.35-.23 0-.460005-.25-.720005-.3-.21-.05-.359985-.0801-.609985-.1501z"/><path d="m20.78 47.9c.03.25.0799.5.1099.74.03.25-.0799.52-.0499.76.03.25.3199.46.3499.7.03.25.0801.5.1201.74.03.25-.1101.52-.0801.76.03.25.07.5.09.74.03.25.0301.49.0501.74s.18.48.19.73c.01.2-.11.61-.34.86s-.6401.44-.8301.43c-.2-.01-.41.11-.65.14s-.4699-.21-.6799-.26-.5801-.01-.6801-.27c-.07-.16.0901-.45.0901-.74 0-.24-.09-.48-.1-.73-.01-.24.02-.49 0-.73s.0899-.5.0699-.74c-.03-.24-.21-.47-.23-.71s.04-.49.02-.73-.05-.48-.07-.72c-.01-.24.03-.48.03-.72 0-.23.06-.51.25-.77.2-.27.41-.5.63-.55.27-.07.58-.05.87.03.31.1.6101.24.8401.3z"/><path d="m131.64 55.36c-.01.26-.23.48-.31.69-.09.22-.14.5101-.32.6701-.17.15-.42.28-.66.37-.21.07-.48.0199-.73.0499-.22.02-.45-.11-.71-.12-.25-.01-.48-.0299-.72-.1099s-.53-.0501-.75-.1801c-.22-.14-.35-.38-.53-.56-.19-.19-.47-.31-.58-.53-.12-.24-.16-.54-.14-.78.01-.26.08-.5299.18-.7699.1-.23.21-.5101.38-.7001s.37-.4199.58-.5499c.21-.14.59.0499.83-.0201s.45-.1799.71-.1699c.25 0 .45.0999.67.1499.24.06.59-.16.79-.04.21.12.35.39.5.57.16.17.39.34.5.56.1.21.11.4901.15.7301.06.23.16.4899.16.7399z"/><path d="m9.75 54.98c.06-.24.08998-.6.13998-.83.06-.24.26002-.44.32002-.67.06-.24.11-.47.17-.71s.1-.47.16-.71.27-.43.33-.67.09-.4699.15-.6999-.22-.55-.16-.78.38-.3901.44-.6301c.07-.26.16-.42.27-.57.15-.21.2-.55.4-.6s.47.15.7.18c.21.02.45-.03.67 0s.44.11.65.08c-.04.24.02.5-.02.74s-.21.46-.25.7-.08.48-.12.72-.04.48-.09.72c-.04.24-.17.46-.22.7-.04.24-.03.48-.08.72s.09.51.04.75c-.05.23-.24.44-.3.67-.08.29-.32.4-.45.54-.17.2-.28.34-.52.36-.21.03-.45.09-.7.05-.23-.03-.45-.18-.7-.21-.23-.02-.59.13-.83.15z"/><path d="m86.35 77.93c-.14.24-.08.55-.23.69-.2.2-.57.06-.78.12-.23.07-.41.09-.65.05-.23-.04-.47-.02-.7-.11-.22-.08-.48-.09-.71-.17s-.47-.12-.7-.15c-.24-.04-.38.03-.62.08-.11.19-.17.35-.28.55-.11.19-.51.23-.62.43s-.2.41-.32.61c-.11.19-.16.44-.28.63-.12.2-.25.39-.36.58-.12.2-.04.52-.16.72-.11.18-.32.32-.45.48-.13.18-.4.21-.57.32s-.32.27-.55.27c-.18 0-.34-.17-.58-.26-.25-.09-.57 0-.79-.1-.25-.11-.39-.36-.57-.53s-.49-.28-.58-.55c-.07-.21.17-.5.17-.8 0-.24-.08-.49-.1-.73s-.18-.46-.22-.7 0-.49-.05-.73-.03-.49-.08-.72c-.05-.24-.22-.44-.27-.67-.24-.07-.47-.16-.72-.23-.24-.07-.46-.21-.71-.28-.24-.07-.47-.2-.71-.27s-.55.1-.8.02c-.24-.07-.49-.11-.73-.18s-.4-.4-.65-.47c-.24-.07-.56.1-.8.03s-.4-.43-.65-.51c-.24-.07-.55.02-.79-.05.13-.21.34-.35.48-.51.16-.18.23-.45.4-.58.19-.14.47-.13.67-.23.21-.1.38-.29.59-.37.22-.07.44-.15.66-.2.23-.05.44-.2.66-.24.23-.04.44-.11.66-.16.23-.05.48.05.7-.02.22-.08.58-.06.78-.18.03-.26-.19-.59-.22-.85-.03-.25-.04-.51-.1-.76s-.32-.45-.39-.7.1-.56.05-.81c-.04-.25-.2-.51-.19-.76s.25-.46.33-.72c.08-.23.03-.6.18-.83.22.05.52.15.73.21.22.06.4.25.62.33.22.07.44.11.65.2s.38.26.57.37c.2.11.52.05.7.19s.14.52.3.68c.15.16.41.22.55.42.15.21.33.37.5.51.2.16.39.33.61.38s.44-.1.69-.17c.21-.05.42-.1.64-.24.21-.13.39-.33.6-.42.22-.1.53.05.76 0 .23-.06.44-.21.68-.22.23-.01.46.14.7.17.23.03.52-.18.75-.11.22.07.46.16.68.26.21.09.54.27.76.39-.1.21-.48.44-.58.66-.09.22-.18.44-.27.65-.09.22.07.55-.03.76-.1.22-.18.45-.29.66s-.42.32-.54.53c-.15.26-.35.5-.37.71-.02.26.31.45.43.67.11.2.12.49.31.68s.54.21.73.4l.54.57s.19.54.38.74c.21.21.36.37.55.57z"/><path d="m99.75 70.3101c.22.05.48-.05.69 0 .22.05.37.39.58.44.22.05.46-.03.68.02.21.05.41.18.63.23.21.05.4.22.63.27.21.05.33-.06.56-.01-.19.17-.28.26-.45.42-.18.18-.33.38-.49.54-.18.18-.35.35-.52.5-.19.16-.26.47-.46.6-.23.14-.39.21-.49.36-.13.2-.43.37-.41.6.02.2.43.33.52.56.09.25.08.54.18.79s.02.56.1.82c.09.25.34.45.41.71.04.17-.04.39-.06.58-.03.21-.2.29-.3.42-.09.11-.16.18-.37.21-.2.03-.42.23-.57.18-.22-.08-.39-.32-.61-.41s-.46-.11-.69-.21c-.22-.09-.39-.29-.6-.38-.22-.09-.4201-.22-.6401-.32-.22-.09-.5799.14-.7999.05s-.3501-.23-.5701-.33c-.17.12-.33.27-.59.44-.21.15-.5.2-.69.4-.21.23-.4899.23-.6999.32-.26.11-.4901.42-.7401.37-.25-.04-.41-.44-.65-.55s-.5099-.15-.7399-.25c-.11-.05-.26-.21-.28-.46-.02-.2-.13-.47-.09-.63.06-.22.4-.34.49-.56.09-.2-.01-.49.1-.71.09-.19.2799-.34.3799-.57-.19-.11-.4-.16-.59-.26-.2-.1-.28-.42-.47-.53-.2-.1-.4799-.04-.6599-.16-.19-.11-.27-.38-.44-.51-.16-.12-.4901-.13-.6201-.34-.14-.23-.05-.47 0-.64s.0901-.41.3301-.54c.21-.12.46-.2.66-.24.21-.05.45.13.66.11s.4199-.06.6299-.08.4001-.31.6101-.33c.21-.03.4399.03.6399-.02.24-.06.3901-.28.5901-.47.19-.17.4399-.3.6099-.48.19-.19.0901-.63.2601-.85.14-.2.5099-.29.6699-.54.15-.24.3401-.45.4901-.65.22-.29.3199-.79.5099-.78.25.02.47.33.72.38s.58-.11.81 0 .26.51.44.69c.17.17.53.24.62.49.07.21.19.51.2.79-.07.29-.1099.53-.1099.52z"/><path d="m62.0399 67.73c.23.07.3401.28.5501.34.22.07.41.25.63.31.22.07.5099-.1.73-.04.22.06.4299.17.6499.23s.3901.17.6201.24c-.12.18-.31.26-.41.42-.12.18-.05.47-.16.62-.12.17-.23.36-.37.5-.18.17-.5.18-.61.35-.13.2-.26.44-.3.64-.04.21.09.47.12.69.02.21.1399.41.1999.63.06.2.27.36.35.57.09.24.04.63.06.93.02.35-.0699.71-.2299.87-.12.12-.37 0-.6.03-.19.03-.3701.28-.5801.27s-.4299-.01-.6099-.05c-.24-.05-.51-.07-.74-.16-.22-.09-.34-.44-.56-.54s-.47.01-.7-.09c-.18.14-.4201.15-.6001.31s-.2299.47-.4199.62-.48.16-.7.24c-.21.07-.46.21-.71.17-.21-.03-.4701-.1-.7101-.22s-.3999-.36-.5699-.49c-.22-.16-.5701-.27-.6101-.52-.03-.19.01-.54.15-.82.13-.26.2601-.44.3001-.66.05-.28.02-.45-.07-.68-.08-.22-.15-.4-.37-.59-.17-.14-.4001-.2-.6701-.32-.21-.1-.4099-.44-.5799-.68-.19-.26-.16-.57-.13-.78.05-.3.08-.45.23-.53.17-.09.41-.26.65-.21.21.04.3699.45.5799.47.25.03.5301-.16.7701-.2.25-.05.43-.18.6-.38.14-.16.1499-.35.1899-.66.04-.28.27-.55.41-.78.11-.18.0701-.46.1701-.67s.33-.35.43-.55c.11-.22.17-.46.3-.63.16-.21.36-.45.55-.5.26-.07.54.09.78.15s.38.28.59.44c.2.14.4599.21.6199.41.15.19.4101.35.5201.58.12.27.1999.48.2599.72z"/><path d="m117.72 83.73c-.23-.03-.41-.34-.61-.4-.23-.06-.45-.07-.64-.16-.22-.11-.46-.14-.61-.28-.18-.16-.15-.43-.24-.62-.1-.21-.42-.38-.38-.6.03-.21.32-.39.44-.63.1-.21.1-.49.24-.7.14-.2.4-.31.56-.49.17-.19.29-.42.46-.57.2-.17.43-.28.63-.38.27-.14.52-.26.71-.18s.36.3.58.34c.21.05.5-.19.71-.14.22.05.46.17.64.27.19.11.37.32.48.53.09.17-.1.43-.09.69.01.21-.05.37-.13.6-.07.2.05.49-.07.69-.11.19-.32.32-.47.5-.14.17-.32.31-.48.46-.17.16-.35.27-.53.4-.2.14-.27.48-.46.56-.25.1-.55.13-.74.11z"/><path d="m100.96 85.44c-.01.24.06.45-.05.67-.1.21-.22.4-.39.58-.17.17-.31.38-.52.5s-.43.33-.66.37c-.24.05-.49-.21-.72-.26-.18-.04-.5.2-.63.1-.18-.13-.3301-.35-.5701-.43-.23-.07-.43-.18-.63-.29-.21-.12-.2399-.21-.2999-.46-.04-.18-.2501-.37-.1601-.66.08-.27.09-.57.21-.78.14-.24.32-.49.5-.65.2-.18.49-.31.73-.39s.5201.16.7901.18c.24.02.4999-.06.7599.06.19.08.46-.07.6901-.02.22.05.47.14.67.23.2.1.38.35.48.57.07.16-.18.4-.2.68z"/><path d="m112.58 80.61c-.09.27-.32.58-.41.8-.12.27-.27.46-.42.63-.19.21-.34.24-.61.25-.21 0-.4-.02-.69-.18-.17-.09-.45-.2-.57-.47-.12-.28-.15-.63-.08-.79.16-.32.27-.62.42-.73.25-.17.56.03.82.15.22.11.54.07.78.17.24.13.49.27.76.17z"/><path d="m48.75 19.93c.06.23.38.38.43.62s-.0101.5.0199.74-.1199.49-.1099.73.13.48.13.72c-.01.24-.0901.48-.1201.71-.03.24.0101.49-.0399.72-.04.24-.1501.46-.2101.69s-.1199.47-.1999.69c-.08.23-.2601.41-.3601.63s.0901.58-.0199.79-.55.24-.68.44-.23.41-.37.6-.17.47-.33.65-.38.3-.55.47-.2801.41-.4601.57-.49.14-.69.28-.2899.43-.49.55c-.2099.12-.4499.17-.6699.27-.21.11-.3901.3-.6201.39-.22.09-.4099.31-.6399.39-.23.07-.52-.05-.75 0s-.45.21-.69.24-.48.1-.72.11c-.24.02-.4901-.05-.7301-.05s-.4699-.21-.7099-.23-.4801.04-.72 0c-.23-.04-.47.08-.7.05s-.4201-.3-.6501-.33-.4799.16-.7099.13-.45-.09-.68-.12c-.23-.04-.43-.2-.66-.24s-.4201-.22-.6401-.27-.5099.16-.7299.1-.3701-.34-.5801-.43c-.22-.08-.4699-.08-.6699-.19-.21-.11-.4501-.15-.6401-.28s-.2599-.42-.4299-.57c-.18-.15-.5101-.14-.6701-.31-.15-.17-.2799-.38-.4199-.57-.13-.19-.3601-.33-.4801-.53-.11-.2-.15-.46-.25-.67s-.0299-.49-.1199-.71c-.08-.21-.18-.42-.25-.65-.07-.22-.03-.47-.08-.69-.06-.25-.3101-.45-.3601-.69-.06-.25.0401-.52-.0099-.77s-.15-.48-.19-.73-.2-.49-.22-.74.0799-.51.0699-.76-.0599-.5-.0399-.76c.01-.25-.0901-.52-.0501-.77s.43-.42.5-.67c.06-.24-.11-.55-.03-.79.09-.23.23-.45.34-.68.1-.21.4001-.3.5201-.5s-.05-.59.09-.78.5-.21.65-.39.31-.34.48-.5c.16-.16.15-.53.33-.68s.47-.17.66-.31.4099-.22.6099-.34.42-.19.63-.3.3301-.39.5401-.49c.21-.09.53.09.75.01s.37-.37.59-.44c.22-.06.46-.1.69-.14s.47.01.7-.02.46-.06.69-.07.4699-.18.6999-.18c.23.01.4701.09.7001.12s.4699.03.6999.07.47.04.69.09c.23.05.4.32.62.38s.4301.16.6501.23.45.1.66.18c.22.08.4.24.61.33s.5599-.12.7699-.02.3401.35.5501.46c.2.11.34.32.54.44s.4099.21.5999.33c.19.13.3301.32.5201.45.19.14.4199.2.5999.34s.3101.34.4801.49c.19.18.3899.33.5599.54.17.2.4901.28.6401.5.15.21.2399.47.3899.69s.3401.4.4901.62c.16.26.1.6.25.81zm-17.2701 5.07c.02.06.29.11.34.25.1.24.1101.51.2001.72.1.24.0399.54.1399.76.11.24.3301.42.4301.63.12.24.18.49.31.69.14.23.35.39.5.56.17.19.3299.39.5399.52.2.13.44.22.69.29.22.06.4601.21.7301.24.23.02.49-.29.76-.29.23 0 .49.36.75.35.29-.01.55-.03.84 0 .28.03.58-.09.87-.08.25.01.4999.1.7399.09.25-.01.4901-.14.7301-.17.25-.03.5299.12.7699.07s.4401-.3.6701-.38c.24-.08.5-.09.72-.2.22-.1.4-.31.6-.43.21-.13.3099-.38.5099-.54.19-.15.5001-.16.6701-.34.17-.17.24-.43.4-.62.15-.19.25-.4.38-.61s.3-.38.4-.6.37-.38.45-.61.06-.49.12-.74c.05-.23-.05-.5-.02-.75.03-.24.3-.46.31-.71.01-.24-.2001-.48-.2101-.71 0-.24.0101-.47-.0099-.7-.02-.24.0799-.48.0399-.71s.0501-.5-.0099-.73-.3901-.38-.4601-.6c-.08-.22.0401-.52-.0499-.74-.1-.22-.29-.39-.4-.59-.12-.2-.3101-.36-.4501-.55s-.14-.5-.29-.67c-.16-.17-.4999-.16-.6699-.32-.17-.15-.33-.31-.53-.45-.19-.13-.4401-.15-.6401-.26s-.3599-.28-.5799-.37c-.21-.09-.3801-.32-.6101-.38-.22-.06-.4599-.09-.6899-.14-.23-.04-.45-.18-.69-.2s-.49.15-.72.14c-.24-.01-.4801-.16-.7101-.15-.24.01-.4699.09-.6999.11-.24.03-.45.19-.68.23s-.4901-.02-.7101.05c-.23.06-.4399.19-.6499.27-.22.08-.38.29-.59.39-.21.11-.5901-.09-.7901.03-.2.13-.2499.48-.4299.62-.19.15-.39.26-.56.43-.17.16-.5001.2-.6401.38-.15.18.0001.58-.1299.78s-.48.26-.58.47c-.11.21-.21.43-.3.65-.08.22.11.52.05.75-.06.22-.27.41-.31.64s-.1201.46-.1401.69-.0799.47-.0799.71c0 .23.2199.46.2399.7.02.23-.23.5-.19.74.04.23.3201.42.3701.65 0 .24-.1201.51-.0501.74z"/><path d="m40.8899 27.35c-.19.05-.44.04-.7.04-.21 0-.45.09-.7.06-.22-.03-.43-.19-.66-.24-.22-.04-.41-.23-.64-.29-.22-.06-.48.04-.71-.03-.22-.07-.41-.24-.62-.32-.22-.08-.49-.01-.71-.09-.22-.09-.46-.12-.67-.21-.22-.1-.44-.19-.64-.29-.22-.11-.44-.2-.63-.31-.22-.13-.29-.45-.46-.57-.22-.16-.41-.27-.52-.42-.15-.21-.43-.35-.51-.56-.09-.23.06-.52.04-.76s-.06-.47-.02-.71.05-.49.13-.71c.08-.23.38-.36.47-.58.1-.22.1-.49.2-.7.1-.22.08-.5.19-.71s.38-.33.52-.53c.13-.2.13-.5.28-.68s.48-.2.66-.36c.17-.16.2-.51.4-.65.19-.13.53-.02.75-.13.21-.1.32-.46.56-.54.23-.07.49-.05.71-.09.23-.04.47-.18.7-.19.23 0 .49.04.72.07s.41.34.63.39c.22.06.42.19.63.26.22.08.51-.05.72.04s.44.14.65.23.42.2.63.29c.24.1.37.42.58.53.23.12.52.11.72.24.22.15.46.25.64.41.19.18.18.52.32.71.15.21.56.27.65.49.1.23.12.52.15.77.03.24.11.53.07.78-.03.24-.08.52-.17.77-.08.23-.19.48-.31.72-.11.21-.34.38-.49.6-.14.2-.21.47-.38.67-.15.17-.52.14-.69.3-.16.16-.25.39-.42.54s-.31.34-.48.49c-.18.14-.49.12-.67.26s-.18.5-.36.65c-.14.14-.39.21-.56.36z"/></g></svg>